<?xml version="1.0" encoding="UTF-8"?>
<svg width="124px" height="154px" viewBox="0 0 124 154" version="1.1" xmlns="http://www.w3.org/2000/svg" xmlns:xlink="http://www.w3.org/1999/xlink">
    <!-- Generator: Sketch 52.4 (67378) - http://www.bohemiancoding.com/sketch -->
    <title>Group 7</title>
    <desc>Created with Sketch.</desc>
    <g id="Page-1" stroke="none" stroke-width="1" fill="none" fill-rule="evenodd">
        <g id="A&amp;M1" transform="translate(-259.000000, -227.000000)">
            <g id="Group-7" transform="translate(259.000000, 227.000000)">
                <path d="M15.294,26.373 C15.633,26.277 15.976,26.194 16.323,26.126 C15.976,26.195 15.633,26.276 15.294,26.373" id="Fill-240" fill="#FFFFFE"></path>
                <path d="M16.601,26.072 C17.456,25.921 18.33,25.847 19.211,25.838 C18.33,25.848 17.456,25.921 16.601,26.072" id="Fill-241" fill="#FFFFFE"></path>
                <path d="M19.421,25.837 C20.337,25.838 21.26,25.903 22.176,26.023 C21.26,25.903 20.338,25.838 19.421,25.837" id="Fill-242" fill="#FFFFFE"></path>
                <path d="M5.138,34.514 C5.597,33.947 6.077,33.388 6.573,32.842 C6.077,33.388 5.597,33.947 5.138,34.514" id="Fill-243" fill="#FFFFFE"></path>
                <path d="M6.577,32.838 C7.077,32.288 7.592,31.751 8.117,31.231 C7.592,31.751 7.077,32.288 6.577,32.838" id="Fill-244" fill="#FFFFFE"></path>
                <path d="M8.122,31.227 C8.646,30.708 9.181,30.206 9.72,29.727 C9.181,30.206 8.646,30.708 8.122,31.227" id="Fill-245" fill="#FFFFFE"></path>
                <path d="M9.729,29.719 C10.269,29.24 10.813,28.782 11.355,28.352 C10.813,28.782 10.269,29.24 9.729,29.719" id="Fill-246" fill="#FFFFFE"></path>
                <path d="M12.722,27.442 C13.023,27.27 13.33,27.114 13.643,26.973 C13.33,27.114 13.023,27.27 12.722,27.442" id="Fill-247" fill="#FFFFFE"></path>
                <path d="M13.868,26.868 C14.254,26.704 14.648,26.561 15.048,26.44 C14.648,26.562 14.254,26.704 13.868,26.868" id="Fill-248" fill="#FFFFFE"></path>
                <path d="M11.355,28.352 C11.699,28.079 12.056,27.841 12.42,27.618 C12.056,27.841 11.699,28.079 11.355,28.352" id="Fill-249" fill="#FFFFFE"></path>
                <path d="M14.842,36.648 C18.14,34.557 20.979,33.987 22.216,33.84 C22.039,34.128 21.871,34.422 21.7,34.714 C23.456,31.713 25.538,28.926 27.901,26.404 C27.669,26.652 27.436,26.899 27.209,27.153 C25.618,26.66 23.912,26.25 22.179,26.023 C20.945,30.085 18.118,33.569 14.842,36.648" id="Fill-250" fill="#FFFFFE"></path>
                <path d="M12.581,38.294 C13.35,37.661 14.105,37.104 14.842,36.637 C18.118,33.558 20.945,30 22.179,26 L22.177,26 C21.26,26 20.337,26 19.421,26 L19.211,26 C18.33,26 17.456,26.002 16.601,26.153 C16.507,26.169 16.415,26.148 16.323,26.167 C15.976,26.235 15.633,26.297 15.294,26.393 L15.048,26.45 C14.648,26.572 14.254,26.708 13.868,26.873 L13.643,26.975 C13.33,27.116 13.023,27.272 12.722,27.444 C12.621,27.501 12.52,27.557 12.42,27.618 C12.056,27.841 11.699,28.08 11.355,28.352 C10.813,28.783 10.269,29.24 9.729,29.719 L9.72,29.727 C9.181,30.206 8.646,30.708 8.122,31.227 L8.117,31.231 C7.592,31.751 7.077,32.288 6.577,32.838 L6.573,32.842 C6.077,33.388 5.597,33.947 5.138,34.514 L5.126,34.528 C7.095,36.793 9.792,38.061 12.581,38.294" id="Fill-251" fill="#333635"></path>
                <path d="M14.842,36.648 C14.105,37.116 13.35,37.661 12.581,38.294 C10.977,39.617 9.332,41.31 7.764,43.527 C7.764,43.527 5.395,47.652 17.201,45.182 C17.27,44.943 17.337,44.703 17.41,44.465 C17.474,44.258 17.543,44.054 17.609,43.849 C17.751,43.41 17.897,42.974 18.052,42.542 C18.14,42.295 18.228,42.049 18.32,41.805 C18.482,41.373 18.652,40.945 18.827,40.519 C18.909,40.319 18.986,40.116 19.071,39.917 C19.31,39.358 19.561,38.806 19.821,38.258 C19.948,37.99 20.081,37.727 20.212,37.462 C20.373,37.14 20.537,36.819 20.705,36.501 C20.853,36.22 21.002,35.938 21.156,35.66 C21.332,35.341 21.516,35.028 21.7,34.714 C21.871,34.422 22.039,34.128 22.216,33.84 C20.979,33.987 18.14,34.557 14.842,36.648" id="Fill-252" fill="#F5C9AB"></path>
                <path d="M112.096,28.352 C107.785,24.93 101.735,25.53 96.728,27.005 C98.666,29.146 100.41,31.466 101.926,33.943 C104.558,34.409 110.538,36.249 115.687,43.527 C115.687,43.527 117.978,47.502 106.92,45.321 C107.391,46.966 107.772,48.648 108.06,50.362 C110.227,50.525 112.651,50.534 115.351,50.312 C129.928,49.116 120.797,35.257 112.096,28.352" id="Fill-253" fill="#FFFFFE"></path>
                <path d="M115.687,43.527 C110.538,36.249 104.558,34.409 101.926,33.943 C104.074,37.454 105.763,41.275 106.92,45.321 C117.978,47.502 115.687,43.527 115.687,43.527" id="Fill-254" fill="#F5C9AB"></path>
                <path d="M95.821,26.03 C98.722,24.228 103.617,20.326 105.391,13.746 C107.978,4.152 105.36,1.249 103.035,0.805 C101.089,0.433 96.782,15.456 87.061,18.874 C90.269,20.898 93.209,23.305 95.821,26.03" id="Fill-255" fill="#FFFFFE"></path>
                <path d="M105.236,125.364 C108.007,134.247 117.08,124.504 119.889,118.54 C119.889,118.54 102.466,116.481 105.236,125.364" id="Fill-256" fill="#333635"></path>
                <path d="M43.444,141.015 C39.453,141.015 35.88,143.09 33.87,146.214 C32.738,147.974 32,150.064 32,152.313 L32,154 L55,154 L55,152.313 C55,150.064 54.206,147.975 53.073,146.214 C51.063,143.09 47.434,141.015 43.444,141.015" id="Fill-257" fill="#333635"></path>
                <path d="M78.939,141.015 C74.599,141.015 71.014,143.466 69.122,147.057 C68.295,148.627 68,150.414 68,152.313 L68,154 L90,154 L90,152.313 C90,149.202 88.859,146.385 86.825,144.342 C84.779,142.288 82.067,141.015 78.939,141.015" id="Fill-258" fill="#333635"></path>
                <path d="M25.497,102.286 C25.392,101.685 25.305,101.078 25.229,100.467 C25.303,101.079 25.393,101.685 25.497,102.286" id="Fill-259" fill="#FFFFFE"></path>
                <path d="M68.133,132.169 C68.138,132.078 68.151,131.993 68.147,131.897 C68.129,131.536 68.175,131.161 68.261,130.778 C68.591,130.23 68.859,129.66 69.052,129.09 C69.108,128.922 69.151,128.756 69.195,128.588 C72.809,122.727 84.633,116.572 87.517,122.168 C82.322,127.278 75.618,130.852 68.133,132.169 M46.732,129.543 C40.32,126.668 34.899,121.994 31.062,116.18 C32.817,113.916 35.95,111.034 38.088,113.327 C39.393,114.726 40.122,116.627 41.421,118.077 C42.783,119.596 44.458,120.546 46.183,121.582 C48.374,122.899 49.458,128.313 46.732,129.543 M92.637,104.603 C91.769,103.597 91.124,102.443 90.59,101.226 C86.822,108.127 79.82,106.652 73.193,104.325 C72.604,108.175 72.573,112.26 71.473,115.752 C69.914,120.702 65.861,118.577 62.67,116.421 C60.662,115.065 58.698,113.505 57.1,111.68 C56.287,110.751 56.069,109.264 56.053,107.653 C56.099,107.426 56.135,107.199 56.158,106.969 C56.216,106.405 56.2,105.821 56.129,105.239 C56.15,104.849 56.17,104.466 56.188,104.091 C58.005,104.308 59.85,104.432 61.726,104.432 C64.885,104.432 67.969,104.113 70.951,103.511 C67.276,102.14 63.851,100.772 61.337,100.772 C54.372,100.772 40.438,111.261 33.466,103.229 C31.188,104.116 28.664,104.55 25.931,104.413 C25.778,103.759 25.671,103.098 25.552,102.432 C26.736,109.098 30,115.141 34,120.047 L34,146.214 C36,143.09 39.509,141.015 43.5,141.015 C47.49,141.015 51,143.09 53,146.214 L53,131.676 C56,132.365 58.754,132.739 61.782,132.739 C64.253,132.739 67,132.491 69,132.026 L69,147.057 C71,143.466 74.655,141.015 78.996,141.015 C82.124,141.015 85,142.288 87,144.342 L87,122.719 C91,118.698 94.539,113.672 96.502,108.017 C94.987,108.088 93.42,105.512 92.637,104.603" id="Fill-260" fill="#FFFFFE"></path>
                <path d="M96.922,106.653 C96.824,106.978 96.716,107.3 96.608,107.621 C96.716,107.299 96.824,106.978 96.922,106.653" id="Fill-261" fill="#FFFFFE"></path>
                <path d="M98.137,101.139 C98.103,101.38 98.069,101.621 98.03,101.86 C98.069,101.62 98.103,101.38 98.137,101.139" id="Fill-262" fill="#FFFFFE"></path>
                <path d="M25.005,98.031 C24.966,97.345 24.943,96.653 24.943,95.956 C24.943,96.653 24.967,97.344 25.005,98.031" id="Fill-263" fill="#FFFFFE"></path>
                <path d="M97.495,104.521 C97.378,105.01 97.251,105.494 97.115,105.974 C97.251,105.494 97.378,105.01 97.495,104.521" id="Fill-264" fill="#FFFFFE"></path>
                <path d="M97.857,102.826 C97.811,103.069 97.769,103.312 97.718,103.553 C97.769,103.312 97.811,103.069 97.857,102.826" id="Fill-265" fill="#FFFFFE"></path>
                <path d="M98.463,97.706 C98.455,97.899 98.439,98.091 98.427,98.283 C98.439,98.091 98.455,97.899 98.463,97.706" id="Fill-266" fill="#FFFFFE"></path>
                <path d="M98.339,99.435 C98.318,99.662 98.292,99.89 98.267,100.117 C98.292,99.89 98.318,99.663 98.339,99.435" id="Fill-267" fill="#FFFFFE"></path>
                <path d="M25.188,100.144 C25.123,99.586 25.076,99.022 25.038,98.456 C25.076,99.023 25.124,99.585 25.188,100.144" id="Fill-268" fill="#FFFFFE"></path>
                <path d="M46.183,121.583 C44.458,120.546 42.783,119.596 41.421,118.077 C40.122,116.627 39.393,114.726 38.088,113.327 C35.95,111.034 32.817,113.917 31.063,116.18 C34.899,121.994 40.32,126.667 46.732,129.544 C49.458,128.313 48.374,122.899 46.183,121.583" id="Fill-269" fill="#333635"></path>
                <path d="M33.466,103.229 C31.924,101.451 30.717,98.78 30.008,94.873 C29.79,93.671 29.657,92.54 29.581,91.458 C28.292,90.216 27.066,88.907 25.926,87.523 C25.29,90.233 24.943,93.053 24.943,95.956 C24.943,96.653 24.966,97.345 25.005,98.031 C25.013,98.174 25.028,98.314 25.038,98.456 C25.076,99.022 25.123,99.586 25.188,100.144 C25.2,100.252 25.215,100.36 25.229,100.467 C25.305,101.078 25.392,101.685 25.497,102.286 L25.523,102.432 C25.643,103.098 25.778,103.759 25.932,104.413 C28.664,104.55 31.188,104.116 33.466,103.229" id="Fill-270" fill="#333635"></path>
                <path d="M61.726,104.432 C59.85,104.432 58.005,104.308 56.188,104.091 C56.17,104.466 56.15,104.849 56.129,105.239 C56.2,105.821 56.216,106.405 56.158,106.969 C56.135,107.199 56.099,107.426 56.053,107.653 C56.069,109.264 56.287,110.751 57.1,111.68 C58.698,113.505 60.662,115.065 62.67,116.421 C65.861,118.577 69.914,120.702 71.473,115.752 C72.573,112.26 72.604,108.175 73.193,104.325 C72.438,104.06 71.69,103.787 70.951,103.511 C67.969,104.113 64.885,104.432 61.726,104.432" id="Fill-271" fill="#333635"></path>
                <path d="M93.02,92.268 C92.939,93.106 92.831,93.965 92.666,94.873 C92.185,97.521 91.476,99.602 90.59,101.226 C91.124,102.443 91.769,103.588 92.637,104.595 C93.42,105.504 94.96,108 96.474,108 L96.48,108 C96.525,108 96.564,107.744 96.608,107.612 C96.716,107.291 96.824,106.974 96.922,106.648 C96.991,106.424 97.051,106.199 97.115,105.972 C97.251,105.492 97.378,105.009 97.495,104.52 C97.572,104.199 97.65,103.877 97.718,103.552 C97.769,103.311 97.811,103.068 97.857,102.826 C97.919,102.504 97.977,102.184 98.03,101.86 C98.069,101.621 98.103,101.38 98.137,101.139 C98.185,100.8 98.229,100.459 98.267,100.117 C98.292,99.89 98.318,99.662 98.339,99.435 C98.376,99.053 98.403,98.669 98.427,98.283 C98.439,98.091 98.455,97.899 98.463,97.706 C98.491,97.126 98.508,96.543 98.508,95.956 C98.508,93.053 98.161,90.232 97.525,87.523 C96.137,89.209 94.63,90.793 93.02,92.268" id="Fill-272" fill="#333635"></path>
                <path d="M69.195,128.588 C69.151,128.756 69.108,128.922 69.052,129.09 C68.859,129.66 68.591,130.23 68.261,130.778 C68.175,131.161 68.129,131.536 68.147,131.897 C68.151,131.993 68.138,132.078 68.133,132.169 C75.618,130.852 82.322,127.278 87.517,122.168 C84.633,116.572 72.809,122.727 69.195,128.588" id="Fill-273" fill="#333635"></path>
                <path d="M16.432,67.924 C16.298,67.31 16.182,66.688 16.073,66.065 C16.182,66.688 16.299,67.309 16.432,67.924" id="Fill-274" fill="#FFFFFE"></path>
                <path d="M15.971,65.49 C15.875,64.896 15.798,64.297 15.725,63.696 C15.797,64.297 15.875,64.896 15.971,65.49" id="Fill-275" fill="#FFFFFE"></path>
                <path d="M15.428,55.942 C15.438,55.736 15.45,55.532 15.462,55.327 C15.45,55.532 15.438,55.736 15.428,55.942" id="Fill-276" fill="#FFFFFE"></path>
                <path d="M15.584,53.721 C15.602,53.531 15.617,53.341 15.637,53.153 C15.617,53.341 15.602,53.531 15.584,53.721" id="Fill-277" fill="#FFFFFE"></path>
                <path d="M15.898,51.097 C15.917,50.972 15.941,50.849 15.961,50.724 C15.941,50.849 15.917,50.972 15.898,51.097" id="Fill-278" fill="#FFFFFE"></path>
                <path d="M15.442,60.565 C15.398,59.742 15.374,58.915 15.374,58.081 C15.374,58.915 15.398,59.742 15.442,60.565" id="Fill-279" fill="#FFFFFE"></path>
                <path d="M17.743,72.708 C17.518,72.032 17.31,71.348 17.116,70.659 C17.31,71.349 17.519,72.032 17.743,72.708" id="Fill-280" fill="#FFFFFE"></path>
                <path d="M17.023,70.333 C16.846,69.688 16.686,69.036 16.537,68.38 C16.686,69.037 16.847,69.688 17.023,70.333" id="Fill-281" fill="#FFFFFE"></path>
                <path d="M68.276,57.965 C68.13,53.91 71.301,50.504 75.355,50.36 C79.41,50.215 82.814,53.385 82.96,57.44 C83.105,61.497 79.937,64.901 75.879,65.046 C71.824,65.19 68.421,62.02 68.276,57.965 M47.572,65.046 C43.515,64.901 40.346,61.497 40.491,57.44 C40.637,53.385 44.041,50.215 48.097,50.36 C52.15,50.504 55.321,53.91 55.175,57.965 C55.03,62.02 51.627,65.19 47.572,65.046 M81.494,16.152 C75.497,13.319 68.798,11.729 61.726,11.729 C54.875,11.729 48.378,13.227 42.526,15.894 C45.716,27.731 38.928,42.582 34.786,53.135 C31.301,62.014 26.43,70.753 19.554,77.311 C21.238,80.998 23.38,84.431 25.926,87.523 C27.066,88.907 28.291,90.216 29.581,91.459 C28.317,73.154 46.917,71.791 61.337,71.791 C75.966,71.791 94.893,73.197 93.02,92.268 C94.63,90.793 96.137,89.209 97.525,87.523 C100.173,84.308 102.385,80.724 104.098,76.868 C97.455,70.361 92.706,61.822 89.296,53.135 C85.184,42.659 78.468,27.945 81.494,16.152" id="Fill-282" fill="#FFFFFE"></path>
                <path d="M18.589,75.039 C18.313,74.337 18.054,73.627 17.811,72.909 C18.054,73.627 18.313,74.337 18.589,75.039" id="Fill-283" fill="#FFFFFE"></path>
                <path d="M19.554,77.311 C19.225,76.592 18.915,75.863 18.623,75.126 C18.915,75.864 19.226,76.592 19.554,77.311" id="Fill-284" fill="#FFFFFE"></path>
                <path d="M15.641,63.036 C15.576,62.433 15.532,61.823 15.491,61.213 C15.532,61.823 15.577,62.432 15.641,63.036" id="Fill-285" fill="#FFFFFE"></path>
                <path d="M17.201,45.182 C5.395,47.652 7.764,43.527 7.764,43.527 C9.332,41.31 10.977,39.617 12.581,38.294 C9.792,38.061 7.095,36.793 5.126,34.528 C-0.429,41.395 -2.833,49.415 8.101,50.312 C11.076,50.556 13.702,50.514 16.033,50.3 C16.327,48.559 16.718,46.851 17.201,45.182" id="Fill-286" fill="#FFFFFE"></path>
                <path d="M18.32,41.805 C18.228,42.049 18.14,42.295 18.052,42.542 C18.14,42.295 18.228,42.049 18.32,41.805" id="Fill-287" fill="#FFFFFE"></path>
                <path d="M17.609,43.849 C17.543,44.054 17.474,44.258 17.41,44.465 C17.474,44.258 17.543,44.054 17.609,43.849" id="Fill-288" fill="#FFFFFE"></path>
                <path d="M19.071,39.917 C18.986,40.116 18.909,40.319 18.827,40.519 C18.909,40.319 18.986,40.116 19.071,39.917" id="Fill-289" fill="#FFFFFE"></path>
                <path d="M21.156,35.66 C21.002,35.938 20.853,36.22 20.705,36.501 C20.853,36.22 21.002,35.938 21.156,35.66" id="Fill-290" fill="#FFFFFE"></path>
                <path d="M20.212,37.462 C20.081,37.727 19.948,37.99 19.821,38.258 C19.948,37.99 20.081,37.727 20.212,37.462" id="Fill-291" fill="#FFFFFE"></path>
                <path d="M42.511,15.901 C40.527,16.807 38.619,17.847 36.796,19.012 C26.788,15.878 22.389,0.428 20.416,0.805 C18.091,1.249 15.473,4.152 18.06,13.746 C19.921,20.648 25.203,24.591 28.028,26.268 C32.116,21.943 37.027,18.404 42.511,15.901" id="Fill-292" fill="#FFFFFE"></path>
                <path d="M42.526,15.895 L42.526,15.894 L42.511,15.901 C37.027,18.404 32.116,21.943 28.028,26.268 L27.901,26.404 C25.538,28.926 23.456,31.713 21.7,34.714 C21.516,35.028 21.332,35.341 21.156,35.66 C21.002,35.938 20.853,36.22 20.705,36.501 C20.537,36.819 20.373,37.14 20.212,37.462 C20.081,37.727 19.948,37.99 19.821,38.258 C19.561,38.806 19.31,39.358 19.071,39.917 C18.986,40.116 18.909,40.319 18.827,40.519 C18.652,40.945 18.482,41.373 18.32,41.805 C18.228,42.049 18.14,42.295 18.052,42.542 C17.897,42.974 17.751,43.41 17.609,43.849 C17.543,44.054 17.474,44.258 17.41,44.465 C17.337,44.703 17.27,44.943 17.201,45.182 C16.718,46.851 16.327,48.559 16.033,50.3 C16.009,50.441 15.984,50.582 15.961,50.724 C15.941,50.849 15.917,50.972 15.898,51.097 C15.795,51.777 15.71,52.463 15.637,53.153 C15.617,53.341 15.602,53.531 15.584,53.721 C15.535,54.253 15.494,54.789 15.462,55.327 C15.45,55.532 15.438,55.736 15.428,55.942 C15.396,56.651 15.374,57.363 15.374,58.081 C15.374,58.915 15.398,59.742 15.442,60.565 C15.454,60.783 15.477,60.997 15.491,61.213 C15.532,61.823 15.576,62.433 15.641,63.036 C15.665,63.257 15.698,63.476 15.725,63.696 C15.798,64.297 15.875,64.896 15.971,65.49 C16.002,65.683 16.04,65.873 16.073,66.065 C16.182,66.688 16.298,67.31 16.432,67.924 C16.465,68.077 16.502,68.228 16.537,68.38 C16.686,69.036 16.846,69.688 17.023,70.333 C17.053,70.442 17.085,70.551 17.116,70.659 C17.31,71.348 17.518,72.032 17.743,72.708 L17.811,72.909 C18.054,73.627 18.313,74.337 18.589,75.039 L18.623,75.126 C18.915,75.863 19.225,76.592 19.554,77.311 C26.43,70.753 31.301,62.014 34.786,53.135 C38.928,42.583 45.716,27.73 42.526,15.895" id="Fill-293" fill="#333635"></path>
                <path d="M101.926,33.943 C100.41,31.466 98.666,29.146 96.728,27.005 C96.43,26.676 96.128,26.35 95.821,26.03 C93.209,23.305 90.269,20.898 87.061,18.874 C85.301,17.764 83.464,16.764 81.556,15.894 L81.494,16.152 C78.468,27.945 85.184,42.659 89.296,53.135 C92.706,61.822 97.455,70.361 104.098,76.868 C104.245,77.012 104.379,77.169 104.528,77.311 C107.205,71.452 108.708,64.943 108.708,58.081 C108.708,55.45 108.481,52.873 108.06,50.362 C107.772,48.648 107.391,46.966 106.92,45.321 C105.763,41.275 104.074,37.454 101.926,33.943" id="Fill-294" fill="#333635"></path>
                <path d="M75.551,55.238 C76.998,55.288 78.13,56.504 78.079,57.952 C78.063,58.419 77.913,58.848 77.685,59.221 C77.264,58.061 76.253,57.078 74.721,57.024 C73.912,56.996 73.296,57.232 72.856,57.623 C72.982,56.246 74.152,55.188 75.551,55.238 M82.96,57.44 C82.814,53.385 79.41,50.215 75.355,50.36 C71.301,50.504 68.13,53.91 68.276,57.965 C68.421,62.02 71.824,65.19 75.879,65.046 C79.937,64.901 83.105,61.497 82.96,57.44" id="Fill-295" fill="#333635"></path>
                <path d="M77.685,59.221 C77.913,58.848 78.063,58.419 78.079,57.952 C78.13,56.504 76.998,55.288 75.551,55.238 C74.152,55.188 72.982,56.246 72.856,57.623 C73.296,57.232 73.912,56.996 74.721,57.024 C76.253,57.078 77.264,58.061 77.685,59.221" id="Fill-296" fill="#FFFFFE"></path>
                <path d="M47.9,55.238 C49.299,55.188 50.469,56.246 50.595,57.623 C50.155,57.232 49.539,56.996 48.73,57.024 C47.198,57.078 46.188,58.061 45.766,59.221 C45.538,58.848 45.388,58.419 45.372,57.952 C45.321,56.504 46.453,55.289 47.9,55.238 Z M55.175,57.965 C55.321,53.91 52.15,50.504 48.097,50.36 C44.041,50.215 40.637,53.385 40.491,57.44 C40.346,61.497 43.515,64.901 47.572,65.046 C51.627,65.19 55.03,62.02 55.175,57.965 Z" id="Fill-297" fill="#333635"></path>
                <path d="M48.73,57.024 C49.539,56.996 50.155,57.232 50.595,57.623 C50.469,56.246 49.299,55.188 47.9,55.238 C46.453,55.289 45.321,56.504 45.372,57.952 C45.388,58.419 45.538,58.848 45.766,59.221 C46.188,58.061 47.198,57.078 48.73,57.024" id="Fill-298" fill="#FFFFFE"></path>
                <path d="M41.444,84 C43.377,84 44.944,85.567 44.944,87.5 C44.944,89.433 43.377,91 41.444,91 C39.511,91 37.944,89.433 37.944,87.5 C37.944,85.567 39.511,84 41.444,84 M79.444,84 C81.377,84 82.944,85.567 82.944,87.5 C82.944,89.433 81.377,91 79.444,91 C77.511,91 75.944,89.433 75.944,87.5 C75.944,85.567 77.511,84 79.444,84 M33.466,103.229 C40.438,111.261 54.372,100.772 61.337,100.772 C63.851,100.772 67.276,102.14 70.951,103.511 C71.69,103.787 72.438,104.06 73.193,104.325 C79.82,106.652 86.822,108.127 90.59,101.226 C91.476,99.602 92.185,97.521 92.666,94.873 C92.831,93.965 92.939,93.106 93.02,92.268 C94.893,73.197 75.966,71.791 61.337,71.791 C46.917,71.791 28.317,73.154 29.581,91.459 C29.657,92.54 29.79,93.671 30.008,94.873 C30.717,98.78 31.924,101.451 33.466,103.229" id="Fill-299" fill="#F5C9AB"></path>
                <path d="M41.444,91 C43.377,91 44.944,89.433 44.944,87.5 C44.944,85.567 43.377,84 41.444,84 C39.511,84 37.944,85.567 37.944,87.5 C37.944,89.433 39.511,91 41.444,91" id="Fill-300" fill="#C87455"></path>
                <path d="M79.444,91 C81.377,91 82.944,89.433 82.944,87.5 C82.944,85.567 81.377,84 79.444,84 C77.511,84 75.944,85.567 75.944,87.5 C75.944,89.433 77.511,91 79.444,91" id="Fill-301" fill="#C87455"></path>
                <path d="M108.911,128.93 C108.253,128.93 107.636,128.747 107.082,128.341 C107.079,128.342 107.076,128.344 107.074,128.346 C106.327,127.794 105.695,126.834 105.236,125.364 C105.183,125.194 105.138,125.028 105.099,124.866 C105.103,124.864 105.106,124.862 105.109,124.86 C103.786,119.24 111.045,118.335 115.861,118.335 C118.151,118.335 119.889,118.54 119.889,118.54 C119.883,118.553 119.876,118.566 119.87,118.579 C119.867,118.585 119.865,118.591 119.862,118.596 C117.845,122.837 112.708,128.93 108.911,128.93" id="Fill-303" fill="#454846"></path>
                <path d="M89.944,154 L68,154 L68,152.313 C68,150.414 68.295,148.627 69.122,147.057 C69.992,145.405 71.221,143.994 72.717,142.952 C74.501,141.735 76.634,141.021 78.966,141.015 C82.083,141.022 84.785,142.293 86.825,144.342 C88.089,145.611 89.007,147.179 89.522,148.929 C89.805,149.998 89.944,151.134 89.944,152.313 L89.944,154" id="Fill-304" fill="#454846"></path>
                <path d="M69,147.057 L69,132.026 C68.981,132.031 68.963,132.035 68.944,132.039 L68.944,132.026 C66.619,132.489 64.217,132.737 61.757,132.739 C61.745,132.739 61.735,132.739 61.724,132.739 L61.611,132.735 L61.611,115.682 C61.961,115.935 62.315,116.182 62.67,116.421 C62.677,116.426 62.684,116.431 62.691,116.436 C62.702,116.443 62.713,116.45 62.724,116.458 C62.729,116.461 62.734,116.465 62.74,116.468 C62.776,116.493 62.813,116.518 62.85,116.542 C62.854,116.545 62.859,116.548 62.863,116.551 C64.564,117.686 66.487,118.774 68.138,118.778 C68.142,118.778 68.145,118.778 68.148,118.778 C68.15,118.778 68.151,118.778 68.153,118.778 C69.539,118.777 70.732,118.008 71.439,115.858 C71.44,115.854 71.441,115.851 71.442,115.848 C71.446,115.836 71.45,115.824 71.454,115.812 C71.46,115.792 71.466,115.773 71.473,115.752 C72.573,112.26 72.604,108.175 73.193,104.325 C73.226,104.337 73.258,104.348 73.291,104.36 C73.301,104.363 73.311,104.367 73.322,104.37 C73.327,104.372 73.332,104.374 73.337,104.376 C73.406,104.4 73.476,104.424 73.545,104.448 C73.546,104.448 73.546,104.448 73.546,104.448 C73.57,104.456 73.594,104.465 73.617,104.473 C76.489,105.462 79.416,106.262 82.107,106.264 C82.111,106.264 82.115,106.264 82.118,106.264 C82.12,106.264 82.122,106.264 82.123,106.264 C85.507,106.263 88.517,104.998 90.571,101.26 C90.577,101.248 90.584,101.237 90.59,101.226 C91.124,102.443 91.769,103.597 92.637,104.603 C93.409,105.5 94.945,108.018 96.44,108.018 C96.45,108.018 96.459,108.018 96.469,108.018 C96.377,108.315 96.282,108.607 96.184,108.892 C94.348,113.723 91.379,118.069 87.995,121.687 C87.837,121.849 87.677,122.009 87.516,122.167 C86.716,120.615 85.228,119.967 83.417,119.967 C83.416,119.967 83.416,119.967 83.415,119.967 C83.332,119.967 83.248,119.968 83.164,119.971 C78.544,120.118 71.999,124.276 69.337,128.365 C69.336,128.366 69.336,128.367 69.335,128.367 C69.316,128.398 69.296,128.428 69.277,128.458 C69.262,128.481 69.248,128.504 69.233,128.528 C69.22,128.548 69.208,128.568 69.195,128.588 C69.151,128.756 69.108,128.922 69.052,129.09 C68.859,129.66 68.591,130.23 68.261,130.778 C68.187,131.107 68.143,131.43 68.143,131.744 C68.143,131.795 68.144,131.846 68.147,131.897 C68.147,131.912 68.148,131.927 68.148,131.941 C68.147,132.019 68.137,132.092 68.133,132.169 C75.346,130.9 81.834,127.535 86.944,122.72 L86.944,144.285 C84.946,142.264 82.094,141.015 78.996,141.015 C78.986,141.015 78.976,141.015 78.966,141.015 C76.634,141.021 74.501,141.735 72.717,142.952 C71.191,143.994 69.92,145.405 69,147.057" id="Fill-305" fill="#FFFFFE"></path>
                <path d="M61.726,104.432 C61.687,104.432 61.649,104.432 61.611,104.432 L61.611,100.777 C64.097,100.87 67.408,102.189 70.951,103.511 C67.969,104.113 64.885,104.432 61.726,104.432" id="Fill-306" fill="#FFFFFE"></path>
                <path d="M111.309,50.482 C110.167,50.482 109.085,50.439 108.06,50.362 C107.772,48.648 107.391,46.966 106.92,45.321 C106.947,45.327 106.974,45.332 107,45.337 C107.003,45.338 107.006,45.338 107.009,45.339 C107.03,45.343 107.05,45.347 107.07,45.351 C107.1,45.357 107.131,45.362 107.16,45.368 C107.164,45.369 107.169,45.37 107.172,45.37 C109.421,45.803 111.101,45.974 112.353,45.975 C112.356,45.975 112.358,45.975 112.361,45.975 C112.362,45.975 112.363,45.975 112.364,45.975 C117.079,45.974 115.698,43.546 115.688,43.527 C115.687,43.527 115.687,43.527 115.687,43.527 C110.538,36.249 104.558,34.409 101.926,33.943 C100.41,31.466 98.666,29.146 96.728,27.005 C99.036,26.325 101.565,25.831 104.044,25.831 C106.943,25.831 109.772,26.507 112.096,28.352 C117.475,32.62 123.017,39.546 123.023,44.495 C123.026,47.552 120.917,49.855 115.351,50.312 C113.927,50.429 112.581,50.482 111.309,50.482" id="Fill-308" fill="#FFFFFE"></path>
                <path d="M112.361,45.975 C112.358,45.975 112.356,45.975 112.353,45.975 C111.101,45.974 109.42,45.803 107.172,45.37 C107.169,45.37 107.164,45.369 107.16,45.368 C107.131,45.362 107.1,45.357 107.07,45.351 C107.05,45.347 107.03,45.343 107.009,45.339 C107.006,45.338 107.003,45.338 107,45.337 C106.974,45.332 106.947,45.327 106.92,45.321 C105.763,41.275 104.074,37.454 101.926,33.943 C104.558,34.409 110.538,36.249 115.687,43.527 C115.687,43.527 115.687,43.527 115.688,43.527 C115.698,43.546 117.079,45.974 112.364,45.975 C112.363,45.975 112.362,45.975 112.361,45.975" id="Fill-309" fill="#F7D0B4"></path>
                <path d="M95.821,26.03 C93.209,23.305 90.269,20.898 87.061,18.874 C96.663,15.497 100.983,0.798 102.963,0.798 C102.987,0.798 103.012,0.801 103.035,0.805 C104.675,1.118 106.46,2.654 106.463,6.895 C106.464,8.669 106.154,10.917 105.391,13.746 C103.617,20.326 98.722,24.228 95.821,26.03" id="Fill-310" fill="#FFFFFE"></path>
                <path d="M98.267,100.117 C98.292,99.89 98.318,99.662 98.339,99.435 C98.318,99.663 98.292,99.89 98.267,100.117" id="Fill-311" fill="#FFFFFE"></path>
                <path d="M68.148,118.778 C68.145,118.778 68.142,118.778 68.138,118.778 C66.488,118.774 64.564,117.686 62.863,116.551 C62.859,116.548 62.854,116.545 62.85,116.542 C62.813,116.518 62.776,116.493 62.74,116.468 C62.734,116.465 62.729,116.461 62.724,116.458 C62.713,116.45 62.702,116.443 62.691,116.436 C62.684,116.431 62.677,116.426 62.67,116.421 C62.315,116.182 61.961,115.935 61.611,115.682 L61.611,104.432 C61.649,104.432 61.687,104.432 61.726,104.432 C64.885,104.432 67.969,104.113 70.951,103.511 C71.69,103.787 72.438,104.06 73.193,104.325 C72.604,108.175 72.573,112.26 71.473,115.752 C71.466,115.773 71.46,115.792 71.454,115.812 C71.45,115.824 71.446,115.836 71.442,115.848 C71.441,115.851 71.44,115.854 71.439,115.858 C70.732,118.008 69.539,118.777 68.153,118.778 C68.151,118.778 68.15,118.778 68.148,118.778" id="Fill-312" fill="#454846"></path>
                <path d="M96.48,108 L96.474,108 C94.96,108 93.42,105.504 92.637,104.595 C91.769,103.588 91.124,102.443 90.59,101.226 C91.476,99.602 92.185,97.521 92.666,94.873 C92.831,93.965 92.939,93.106 93.02,92.268 C94.63,90.793 96.137,89.209 97.525,87.523 C98.161,90.232 98.508,93.053 98.508,95.956 C98.508,96.543 98.491,97.126 98.463,97.706 C98.455,97.899 98.439,98.091 98.427,98.283 C98.403,98.669 98.376,99.053 98.339,99.435 C98.318,99.662 98.292,99.89 98.267,100.117 C98.229,100.459 98.185,100.8 98.137,101.139 C98.103,101.38 98.069,101.62 98.03,101.86 C97.977,102.184 97.919,102.504 97.857,102.826 C97.811,103.068 97.769,103.311 97.718,103.552 C97.65,103.877 97.572,104.199 97.495,104.52 C97.378,105.009 97.251,105.492 97.115,105.972 C97.051,106.199 96.991,106.424 96.922,106.648 C96.824,106.974 96.716,107.291 96.608,107.612 C96.564,107.744 96.525,108 96.48,108" id="Fill-313" fill="#454846"></path>
                <path d="M68.133,132.169 C68.137,132.092 68.147,132.019 68.148,131.941 C68.148,131.927 68.147,131.912 68.147,131.897 C68.144,131.846 68.143,131.795 68.143,131.744 C68.143,131.43 68.187,131.107 68.261,130.778 C68.591,130.23 68.859,129.66 69.052,129.09 C69.108,128.922 69.151,128.756 69.195,128.588 C69.208,128.568 69.22,128.548 69.233,128.528 C69.248,128.504 69.262,128.481 69.277,128.458 C69.296,128.428 69.316,128.398 69.335,128.367 C69.336,128.367 69.336,128.366 69.337,128.365 C71.999,124.276 78.544,120.118 83.164,119.971 C83.248,119.968 83.332,119.967 83.415,119.967 C83.416,119.967 83.416,119.967 83.417,119.967 C85.227,119.967 86.716,120.615 87.516,122.167 C87.327,122.353 87.137,122.537 86.944,122.719 L86.944,122.72 C81.834,127.535 75.346,130.9 68.133,132.169" id="Fill-314" fill="#454846"></path>
                <path d="M93.02,92.268 C93.106,91.392 93.149,90.554 93.149,89.752 C93.164,73.18 75.527,71.809 61.611,71.792 L61.611,11.732 L61.726,11.729 C68.798,11.729 75.497,13.319 81.494,16.152 C80.965,18.213 80.733,20.364 80.734,22.566 C80.736,32.96 85.903,44.49 89.296,53.135 C92.706,61.822 97.455,70.361 104.098,76.868 C102.385,80.724 100.173,84.308 97.525,87.523 C96.137,89.209 94.63,90.793 93.02,92.268 M75.614,65.051 C75.614,65.051 75.614,65.051 75.615,65.051 C75.702,65.051 75.79,65.049 75.879,65.046 C79.849,64.904 82.969,61.641 82.965,57.7 C82.965,57.614 82.963,57.527 82.96,57.44 C82.818,53.477 79.564,50.359 75.63,50.356 C75.627,50.356 75.625,50.356 75.622,50.356 C75.546,50.356 75.47,50.357 75.393,50.359 C75.381,50.36 75.367,50.36 75.355,50.36 C71.388,50.501 68.267,53.765 68.271,57.705 C68.272,57.791 68.273,57.878 68.276,57.965 C68.278,58.008 68.28,58.051 68.282,58.093 C68.283,58.118 68.285,58.142 68.286,58.167 C68.529,62.034 71.739,65.048 75.606,65.051 C75.609,65.051 75.612,65.051 75.614,65.051" id="Fill-315" fill="#FFFFFE"></path>
                <path d="M104.528,77.311 C104.379,77.169 104.245,77.012 104.098,76.868 C97.455,70.361 92.706,61.822 89.296,53.135 C85.903,44.49 80.736,32.96 80.734,22.566 C80.733,20.364 80.965,18.213 81.494,16.152 L81.556,15.894 C83.464,16.764 85.301,17.764 87.061,18.874 C90.269,20.898 93.209,23.305 95.821,26.03 C96.128,26.35 96.43,26.676 96.728,27.005 C98.666,29.146 100.41,31.466 101.926,33.943 C104.074,37.454 105.763,41.275 106.92,45.321 C107.391,46.966 107.772,48.648 108.06,50.362 C108.481,52.873 108.708,55.45 108.708,58.081 C108.708,64.943 107.205,71.452 104.528,77.311" id="Fill-316" fill="#454846"></path>
                <path d="M75.614,65.051 C75.612,65.051 75.609,65.051 75.606,65.051 C71.74,65.047 68.529,62.034 68.286,58.167 C68.285,58.142 68.283,58.118 68.282,58.093 C68.28,58.051 68.278,58.008 68.276,57.965 C68.273,57.878 68.272,57.791 68.271,57.705 C68.267,53.765 71.388,50.501 75.355,50.36 C75.367,50.36 75.381,50.36 75.393,50.359 C75.47,50.357 75.546,50.356 75.622,50.356 C75.625,50.356 75.627,50.356 75.63,50.356 C79.563,50.36 82.818,53.477 82.96,57.44 C82.963,57.527 82.965,57.614 82.965,57.7 C82.969,61.641 79.849,64.904 75.879,65.046 C75.79,65.049 75.702,65.051 75.615,65.051 C75.614,65.051 75.614,65.051 75.614,65.051 M74.721,57.024 C76.253,57.078 77.264,58.061 77.685,59.221 C77.913,58.848 78.063,58.419 78.079,57.952 C78.08,57.918 78.081,57.884 78.081,57.85 C78.077,56.448 76.964,55.287 75.551,55.238 C75.519,55.237 75.488,55.236 75.456,55.236 C75.453,55.236 75.451,55.236 75.448,55.236 C74.127,55.24 73.032,56.232 72.867,57.529 C72.864,57.548 72.862,57.567 72.86,57.586 C72.859,57.599 72.857,57.611 72.856,57.623 C72.879,57.604 72.901,57.584 72.925,57.565 L72.926,57.564 C73.335,57.23 73.884,57.023 74.586,57.022 C74.588,57.022 74.59,57.022 74.592,57.022 C74.592,57.022 74.592,57.022 74.593,57.022 C74.613,57.022 74.633,57.022 74.653,57.022 C74.654,57.022 74.655,57.022 74.657,57.022 C74.678,57.023 74.699,57.023 74.721,57.024" id="Fill-317" fill="#454846"></path>
                <path d="M77.685,59.221 C77.264,58.061 76.253,57.078 74.721,57.024 C74.699,57.023 74.678,57.023 74.657,57.022 C74.655,57.022 74.654,57.022 74.653,57.022 C74.633,57.022 74.613,57.022 74.593,57.022 C74.592,57.022 74.592,57.022 74.592,57.022 C74.59,57.022 74.588,57.022 74.586,57.022 C73.884,57.023 73.335,57.23 72.926,57.564 L72.925,57.565 C72.901,57.584 72.879,57.604 72.856,57.623 C72.857,57.611 72.859,57.599 72.86,57.586 C72.862,57.567 72.864,57.548 72.867,57.529 C73.032,56.232 74.127,55.24 75.448,55.236 C75.451,55.236 75.453,55.236 75.456,55.236 C75.488,55.236 75.519,55.237 75.551,55.238 C76.964,55.287 78.077,56.448 78.081,57.85 C78.081,57.884 78.08,57.918 78.079,57.952 C78.063,58.419 77.913,58.848 77.685,59.221" id="Fill-318" fill="#FFFFFE"></path>
                <path d="M82.118,106.264 C82.115,106.264 82.111,106.264 82.107,106.264 C79.416,106.261 76.489,105.462 73.617,104.473 C73.594,104.465 73.57,104.456 73.546,104.448 C73.546,104.448 73.546,104.448 73.545,104.448 C73.476,104.424 73.406,104.4 73.337,104.376 C73.332,104.374 73.327,104.372 73.322,104.37 C73.311,104.367 73.301,104.363 73.291,104.36 C73.258,104.348 73.226,104.337 73.193,104.325 C72.438,104.06 71.69,103.787 70.951,103.511 C67.408,102.189 64.097,100.87 61.611,100.777 L61.611,71.792 C75.527,71.809 93.164,73.18 93.149,89.752 C93.149,90.554 93.106,91.392 93.02,92.268 C92.939,93.106 92.831,93.965 92.666,94.873 C92.185,97.521 91.476,99.602 90.59,101.226 C90.584,101.237 90.577,101.248 90.571,101.26 C88.517,104.998 85.507,106.263 82.123,106.264 C82.122,106.264 82.12,106.264 82.118,106.264 M75.944,87.5 C75.944,89.433 77.511,91 79.444,91 C81.377,91 82.944,89.433 82.944,87.5 C82.944,85.567 81.377,84 79.444,84 C77.511,84 75.944,85.567 75.944,87.5" id="Fill-319" fill="#F7D0B4"></path>
                <path d="M79.444,91 C77.511,91 75.944,89.433 75.944,87.5 C75.944,85.567 77.511,84 79.444,84 C81.377,84 82.944,85.567 82.944,87.5 C82.944,89.433 81.377,91 79.444,91" id="Fill-320" fill="#CD8162"></path>
            </g>
        </g>
    </g>
</svg>