<?xml version="1.0" encoding="UTF-8"?>
<svg width="92px" height="158px" viewBox="0 0 92 158" version="1.1" xmlns="http://www.w3.org/2000/svg" xmlns:xlink="http://www.w3.org/1999/xlink">
    <!-- Generator: Sketch 52.4 (67378) - http://www.bohemiancoding.com/sketch -->
    <title>Group 6</title>
    <desc>Created with Sketch.</desc>
    <g id="Page-1" stroke="none" stroke-width="1" fill="none" fill-rule="evenodd">
        <g id="A&amp;M1" transform="translate(-114.000000, -223.000000)">
            <g id="Group-6" transform="translate(114.000000, 223.000000)">
                <path d="M42,141.764 L42,152.541 C42,152.541 28.837,151.207 28.654,155.541 C28.472,159.874 45.958,156.207 45.958,156.207 C45.958,156.207 63.479,159.874 63.296,155.541 C63.114,151.207 50,152.541 50,152.541 L50,141.782 C49,141.946 47.405,142.041 46.074,142.041 C44.692,142.041 43,141.94 42,141.764" id="Fill-37" fill="#EABD3E"></path>
                <path d="M17.589,99.563 C14.882,101.967 11.555,105.692 8.734,111.188 C2.853,122.646 1.854,135.225 12.65,129.421 C12.65,129.421 13.532,138.736 21.105,134.051 C21.891,133.565 22.524,132.754 23.04,131.718 C18.208,126.286 15.268,119.133 15.268,111.291 C15.268,107.137 16.096,103.178 17.589,99.563" id="Fill-38" fill="#EABD3E"></path>
                <path d="M74.446,99.563 C75.939,103.178 76.768,107.137 76.768,111.29 C76.768,119.133 73.827,126.286 68.995,131.717 C69.511,132.754 70.144,133.565 70.93,134.051 C78.503,138.736 79.385,129.421 79.385,129.421 C90.181,135.224 89.183,122.646 83.301,111.188 C80.48,105.692 77.152,101.967 74.446,99.563" id="Fill-39" fill="#EABD3E"></path>
                <path d="M74.446,99.563 C73.913,98.271 73.292,97.026 72.595,95.831 C65.102,101.19 55.932,104.353 46.018,104.353 C36.103,104.353 26.933,101.19 19.44,95.831 C18.743,97.026 18.122,98.271 17.589,99.563 C16.096,103.178 15.268,107.137 15.268,111.29 C15.268,119.133 18.208,126.286 23.04,131.718 C27.821,137.091 34.457,140.772 41.944,141.764 C43.278,141.94 44.636,142.041 46.018,142.041 C47.349,142.041 48.657,141.946 49.944,141.782 C57.491,140.82 64.182,137.126 68.995,131.717 C73.827,126.286 76.768,119.133 76.768,111.29 C76.768,107.137 75.939,103.178 74.446,99.563" id="Fill-40" fill="#EAAC3B"></path>
                <path d="M15.767,60.433 C15.767,54.941 20.218,50.489 25.71,50.489 C31.201,50.489 35.653,54.941 35.653,60.433 C35.653,65.924 31.201,70.376 25.71,70.376 C20.218,70.376 15.767,65.924 15.767,60.433 M46.018,75.593 C51.621,75.593 53.758,82.219 53.758,82.219 L46.018,87.824 L38.277,82.219 C38.277,82.219 40.414,75.593 46.018,75.593 M66.325,50.489 C71.817,50.489 76.269,54.941 76.269,60.433 C76.269,65.924 71.817,70.376 66.325,70.376 C60.835,70.376 56.382,65.924 56.382,60.433 C56.382,54.941 60.835,50.489 66.325,50.489 M46.018,104.353 C55.932,104.353 65.102,101.19 72.595,95.831 C84.197,87.532 91.768,73.956 91.768,58.604 C91.768,34.31 72.83,14.45 48.914,12.955 C49.911,10.727 51.343,8.799 52.534,6.68 C52.924,5.986 52.419,4.734 51.457,5.05 C49.97,5.538 48.698,6.33 47.63,7.329 C48.59,5.108 49.871,3.024 51.079,0.902 C51.229,0.64 51.035,0.187 50.678,0.295 C45.307,1.94 42.798,7.38 42.029,13.038 C18.631,15.06 0.268,34.682 0.268,58.604 C0.268,73.956 7.837,87.532 19.44,95.831 C26.933,101.19 36.103,104.353 46.018,104.353" id="Fill-41" fill="#EABD3E"></path>
                <path d="M38.277,82.219 L46.018,87.824 L53.758,82.219 C53.758,82.219 51.621,75.593 46.018,75.593 C40.414,75.593 38.277,82.219 38.277,82.219" id="Fill-42" fill="#E77940"></path>
                <path d="M21.867,62.601 C21.503,61.956 21.278,61.225 21.278,60.433 C21.278,57.985 23.261,56.001 25.71,56.001 C28.075,56.001 29.989,57.859 30.117,60.191 C29.398,59.504 28.372,59.068 27.005,59.068 C24.415,59.068 22.649,60.667 21.867,62.601 Z M35.653,60.433 C35.653,54.941 31.201,50.489 25.71,50.489 C20.218,50.489 15.767,54.941 15.767,60.433 C15.767,65.924 20.218,70.376 25.71,70.376 C31.201,70.376 35.653,65.924 35.653,60.433 Z" id="Fill-43" fill="#FFFFFE"></path>
                <path d="M30.117,60.191 C29.989,57.859 28.075,56.001 25.71,56.001 C23.261,56.001 21.278,57.985 21.278,60.433 C21.278,61.225 21.503,61.956 21.867,62.601 C22.649,60.667 24.415,59.068 27.005,59.068 C28.372,59.068 29.398,59.504 30.117,60.191" id="Fill-44" fill="#2B3135"></path>
                <path d="M66.325,56.001 C68.774,56.001 70.757,57.985 70.757,60.433 C70.757,61.225 70.532,61.957 70.168,62.601 C69.386,60.667 67.621,59.068 65.03,59.068 C63.663,59.068 62.637,59.504 61.918,60.191 C62.046,57.859 63.96,56.001 66.325,56.001 M66.325,70.376 C71.817,70.376 76.269,65.924 76.269,60.433 C76.269,54.941 71.817,50.489 66.325,50.489 C60.835,50.489 56.382,54.941 56.382,60.433 C56.382,65.924 60.835,70.376 66.325,70.376" id="Fill-45" fill="#FFFFFE"></path>
                <path d="M70.168,62.601 C70.532,61.957 70.757,61.225 70.757,60.433 C70.757,57.985 68.774,56.001 66.325,56.001 C63.96,56.001 62.046,57.859 61.918,60.191 C62.637,59.504 63.663,59.068 65.03,59.068 C67.621,59.068 69.386,60.667 70.168,62.601" id="Fill-46" fill="#2B3135"></path>
                <path d="M58.041,157.656 C53.638,157.619 47.997,156.552 46.601,156.274 L46.601,142.036 C47.807,142.015 49.129,141.925 50,141.782 L50,152.541 C50,152.541 50.094,152.531 50.268,152.516 L50.268,152.541 C50.268,152.541 52.1,152.354 54.406,152.347 C58.234,152.359 63.185,152.89 63.296,155.541 C63.364,157.139 61.023,157.649 58.041,157.656" id="Fill-48" fill="#EBC540"></path>
                <path d="M74.732,135.369 C73.704,135.369 72.451,134.992 70.93,134.051 C70.144,133.565 69.511,132.754 68.995,131.717 C73.827,126.286 76.768,119.133 76.768,111.29 C76.768,107.137 75.939,103.178 74.446,99.563 C74.499,99.61 74.552,99.657 74.605,99.705 C77.282,102.113 80.535,105.8 83.301,111.188 C85.982,116.411 87.648,121.866 87.646,125.707 C87.643,128.828 86.54,130.884 83.984,130.883 C82.783,130.883 81.263,130.43 79.385,129.421 C79.385,129.421 78.823,135.369 74.732,135.369" id="Fill-49" fill="#EBC540"></path>
                <path d="M46.601,142.035 L46.601,104.35 C56.292,104.228 65.249,101.084 72.595,95.831 C73.292,97.026 73.913,98.271 74.446,99.563 C75.939,103.178 76.768,107.137 76.768,111.29 C76.768,119.133 73.827,126.286 68.995,131.717 C68.985,131.728 68.976,131.738 68.967,131.749 C68.419,132.362 67.848,132.953 67.254,133.521 C67.253,133.522 67.252,133.523 67.251,133.524 C67.232,133.542 67.213,133.56 67.193,133.579 C67.191,133.581 67.189,133.583 67.187,133.585 C67.179,133.592 67.171,133.6 67.164,133.607 C67.158,133.613 67.151,133.619 67.145,133.624 C67.141,133.628 67.138,133.631 67.134,133.635 C67.128,133.64 67.122,133.646 67.116,133.652 C67.112,133.656 67.107,133.661 67.102,133.665 C62.495,138.008 56.547,140.94 49.944,141.782 C48.846,141.922 47.731,142.011 46.601,142.035" id="Fill-50" fill="#EAB63D"></path>
                <path d="M46.601,104.35 L46.601,87.401 L53.758,82.219 C53.758,82.219 51.77,76.054 46.601,75.617 L46.601,2.7 C47.698,1.65 49.006,0.828 50.562,0.332 C50.565,0.331 50.567,0.33 50.57,0.329 C50.579,0.326 50.588,0.324 50.596,0.321 C50.6,0.32 50.604,0.318 50.608,0.317 C50.615,0.315 50.623,0.312 50.631,0.31 C50.635,0.309 50.639,0.307 50.643,0.306 C50.655,0.303 50.666,0.299 50.678,0.295 C50.715,0.284 50.75,0.279 50.784,0.279 C50.997,0.279 51.13,0.493 51.13,0.699 C51.129,0.771 51.113,0.842 51.079,0.902 C49.871,3.024 48.59,5.108 47.63,7.329 C48.698,6.33 49.97,5.538 51.457,5.05 C51.562,5.015 51.661,5 51.754,5 C52.321,5 52.668,5.584 52.666,6.139 C52.666,6.332 52.623,6.521 52.534,6.68 C51.343,8.799 49.911,10.727 48.914,12.955 C72.83,14.45 91.768,34.31 91.768,58.604 C91.768,73.956 84.197,87.532 72.595,95.831 C65.249,101.084 56.292,104.228 46.601,104.35 M56.382,60.433 C56.382,65.924 60.835,70.376 66.325,70.376 C71.817,70.376 76.269,65.924 76.269,60.433 C76.269,54.941 71.817,50.489 66.325,50.489 C60.835,50.489 56.382,54.941 56.382,60.433" id="Fill-51" fill="#EBC540"></path>
                <path d="M46.601,87.401 L46.601,75.617 C51.77,76.054 53.758,82.219 53.758,82.219 L46.601,87.401" id="Fill-52" fill="#E9864C"></path>
                <path d="M66.325,70.376 C60.835,70.376 56.382,65.924 56.382,60.433 C56.382,54.941 60.835,50.489 66.325,50.489 C71.817,50.489 76.269,54.941 76.269,60.433 C76.269,65.924 71.817,70.376 66.325,70.376 M65.03,59.068 C67.621,59.068 69.386,60.667 70.168,62.601 C70.532,61.957 70.757,61.225 70.757,60.433 C70.757,57.985 68.774,56.001 66.325,56.001 C63.96,56.001 62.046,57.859 61.918,60.191 C62.637,59.504 63.663,59.068 65.03,59.068" id="Fill-53" fill="#FFFFFE"></path>
                <path d="M70.168,62.601 C69.386,60.667 67.621,59.068 65.03,59.068 C63.663,59.068 62.637,59.504 61.918,60.191 C62.046,57.859 63.96,56.001 66.325,56.001 C68.774,56.001 70.757,57.985 70.757,60.433 C70.757,61.225 70.532,61.957 70.168,62.601" id="Fill-54" fill="#3C4246"></path>
            </g>
        </g>
    </g>
</svg>