<?xml version="1.0" encoding="UTF-8"?>
<svg width="148px" height="154px" viewBox="0 0 148 154" version="1.1" xmlns="http://www.w3.org/2000/svg" xmlns:xlink="http://www.w3.org/1999/xlink">
    <!-- Generator: Sketch 52.4 (67378) - http://www.bohemiancoding.com/sketch -->
    <title>Group 10</title>
    <desc>Created with Sketch.</desc>
    <g id="Page-1" stroke="none" stroke-width="1" fill="none" fill-rule="evenodd">
        <g id="A&amp;M1" transform="translate(-86.000000, -400.000000)">
            <g id="Group-10" transform="translate(86.000000, 400.000000)">
                <path d="M38.237,87.798 C31.644,79.791 27.685,69.535 27.685,58.354 C27.685,41.341 36.856,26.477 50.519,18.414 C45.318,16.188 39.264,14.742 32.491,15.049 C6.859,16.207 -0.25,53.825 12.207,83.501 C17.446,95.981 27.442,98.281 37.267,96.757 C37.265,96.581 37.254,96.407 37.254,96.231 C37.254,93.327 37.601,90.507 38.237,87.798" id="Fill-393" fill="#38565F"></path>
                <path d="M101.017,63.639 C101.204,68.851 97.132,73.225 91.918,73.412 C86.708,73.597 82.335,69.523 82.149,64.313 C81.962,59.103 86.035,54.727 91.244,54.542 C96.456,54.356 100.83,58.429 101.017,63.639 M100.608,110.997 C100.835,110.284 103.456,110.48 106.465,111.436 C109.472,112.392 111.726,113.744 111.499,114.457 C111.273,115.171 108.65,114.974 105.644,114.019 C102.636,113.065 100.382,111.71 100.608,110.997 M55.573,54.542 C60.782,54.727 64.855,59.103 64.668,64.313 C64.482,69.523 60.109,73.597 54.899,73.412 C49.686,73.225 45.614,68.851 45.801,63.639 C45.988,58.429 50.361,54.356 55.573,54.542 M120.685,10.18 C106.217,9.303 95.12,12.044 88.597,14.349 C84.66,13.047 80.492,12.252 76.166,12.056 C77.313,11.028 78.641,10.194 80.027,9.302 C80.731,8.848 80.468,7.656 79.54,7.828 C77.247,8.254 75.358,10 74.076,12 L74.036,12 C73.637,12 73.242,12.02 72.845,12.031 C73.543,9.835 74.343,7.772 75.589,5.75 C75.986,5.105 75.156,4.325 74.572,4.861 C72.475,6.785 71.364,9.324 71.181,12.098 C71.02,12.107 70.86,12.123 70.7,12.135 C70.002,8.695 70.434,5.624 71.325,2.117 C71.608,1.008 70.213,0.245 69.51,1.219 C67.178,4.452 66.884,8.72 68.286,12.37 C65.241,12.747 62.288,13.417 59.455,14.355 C52.936,12.049 41.831,9.302 27.351,10.18 C1.685,11.736 -5.814,53.827 6.351,86.848 C12.751,104.218 26.484,106.069 38.066,103.925 C37.573,101.609 37.302,99.212 37.267,96.757 C27.442,98.281 17.446,95.981 12.207,83.501 C-0.25,53.825 6.859,16.207 32.491,15.049 C39.264,14.742 45.318,16.188 50.519,18.414 C36.856,26.477 27.685,41.341 27.685,58.355 C27.685,69.535 31.644,79.791 38.237,87.798 C40.873,90.999 43.937,93.831 47.331,96.228 L47.313,96.23 C47.313,96.23 58.117,109.348 63.259,123.219 C64.667,127.018 66.691,130.173 69.127,132.677 C72.717,136.366 77.206,138.622 81.944,139.443 C87.984,140.491 94.424,139.182 99.944,135.447 C102.525,133.701 104.907,131.436 106.945,128.622 C107.706,127.571 108.411,126.434 109.07,125.233 C110.8,122.079 112.168,118.424 113.018,114.225 C113.018,114.225 113.235,111.775 108.133,110.027 C107.786,109.908 107.416,109.792 107.018,109.681 C99.018,107.181 98.045,110.731 98.045,110.731 C98.045,110.731 92.351,122.347 85.351,122.431 C78.351,122.515 79.433,108.515 91.392,101.848 C92.811,101.057 94.137,100.269 95.386,99.493 C99.967,97.11 104.097,93.987 107.623,90.279 C108.697,89.271 109.242,88.673 109.242,88.673 L109.061,88.695 C109.32,88.396 109.584,88.102 109.835,87.797 C116.428,79.791 120.388,69.535 120.388,58.355 C120.388,41.335 111.209,26.466 97.537,18.405 C102.733,16.184 108.78,14.743 115.544,15.049 C141.176,16.207 148.285,53.825 135.828,83.501 C130.596,95.966 120.618,98.274 110.805,96.762 C110.77,99.218 110.498,101.615 110.004,103.932 C121.579,106.065 135.292,104.2 141.685,86.848 C153.85,53.827 146.351,11.736 120.685,10.18" id="Fill-394" fill="#769099"></path>
                <path d="M110.805,96.762 C120.618,98.274 130.596,95.966 135.828,83.501 C148.285,53.825 141.176,16.207 115.544,15.049 C108.78,14.743 102.733,16.184 97.537,18.405 C111.209,26.466 120.388,41.335 120.388,58.355 C120.388,69.535 116.428,79.791 109.835,87.797 C110.472,90.507 110.818,93.327 110.818,96.23 C110.818,96.409 110.808,96.584 110.805,96.762" id="Fill-395" fill="#38565F"></path>
                <path d="M109.746,129.97 C110.806,130.312 111.892,130.481 112.992,130.481 C115.102,130.481 117.263,129.85 119.393,128.615 C118.643,128.064 118.007,127.112 117.547,125.638 C117.493,125.463 117.46,125.301 117.42,125.134 C115.155,126.463 112.989,126.815 110.975,126.163 C110.325,125.953 109.689,125.641 109.07,125.233 C108.411,126.434 107.706,127.571 106.945,128.622 C107.84,129.2 108.774,129.656 109.746,129.97" id="Fill-396" fill="#63818C"></path>
                <path d="M119.393,128.615 C123.16,131.381 129.857,123.788 132.199,118.814 C132.199,118.814 115.467,116.842 117.42,125.134 C117.46,125.301 117.493,125.463 117.547,125.638 C118.007,127.112 118.643,128.064 119.393,128.615" id="Fill-397" fill="#769099"></path>
                <path d="M56.444,141.289 C52.453,141.289 48.88,143.363 46.87,146.487 C45.738,148.248 45,150.338 45,152.586 L45,154 L68,154 L68,152.586 C68,150.338 67.206,148.248 66.073,146.488 C64.064,143.363 60.434,141.289 56.444,141.289" id="Fill-398" fill="#F5C9AB"></path>
                <path d="M82,139.443 L82,146.187 C84,143.23 87.443,141.289 91.306,141.289 C94.803,141.289 98,142.879 100,145.375 L100,135.447 C94,139.182 88,140.491 82,139.443" id="Fill-399" fill="#557683"></path>
                <path d="M91.25,141.289 C87.387,141.289 84.004,143.23 81.967,146.187 C80.714,148.007 80,150.209 80,152.586 L80,154 L103,154 L103,152.586 C103,149.844 101.795,147.331 100.17,145.375 C98.098,142.879 94.747,141.289 91.25,141.289" id="Fill-400" fill="#F5C9AB"></path>
                <path d="M110.818,96.23 C110.818,93.327 110.472,90.507 109.835,87.797 C109.584,88.102 109.32,88.396 109.061,88.695 L109.242,88.673 C109.242,88.673 108.697,89.271 107.623,90.279 C104.097,93.987 99.967,97.11 95.386,99.493 C94.137,100.269 92.811,101.057 91.392,101.848 C79.433,108.515 78.351,122.515 85.351,122.431 C92.351,122.347 98.045,110.731 98.045,110.731 C98.045,110.731 99.018,107.181 107.018,109.681 C107.416,109.792 107.786,109.908 108.133,110.027 C108.925,108.072 109.556,106.036 110.004,103.932 C110.498,101.615 110.77,99.218 110.805,96.762 C110.808,96.584 110.818,96.409 110.818,96.23" id="Fill-401" fill="#557683"></path>
                <path d="M63.259,123.219 C58.117,109.349 47.314,96.231 47.314,96.231 L47.331,96.229 C43.937,93.831 40.873,90.999 38.237,87.798 C37.601,90.507 37.254,93.327 37.254,96.231 C37.254,96.407 37.265,96.581 37.267,96.757 C37.302,99.212 37.602,101.609 38.095,103.925 C39.486,110.463 43,116.356 47,121.102 L47,146.487 C49,143.363 52.509,141.289 56.5,141.289 C60.49,141.289 64,143.363 66,146.488 L66,132.108 C67,132.344 68.078,132.533 69.155,132.677 C66.719,130.173 64.667,127.018 63.259,123.219" id="Fill-402" fill="#557683"></path>
                <path d="M94.745,64.296 C94.725,64.898 94.532,65.448 94.239,65.928 C93.697,64.437 92.398,63.173 90.43,63.105 C89.391,63.067 88.6,63.372 88.035,63.874 C88.196,62.104 89.7,60.745 91.497,60.81 C93.355,60.874 94.81,62.436 94.745,64.296 M82.149,64.313 C82.335,69.523 86.708,73.597 91.918,73.412 C97.132,73.225 101.204,68.851 101.017,63.639 C100.83,58.429 96.456,54.356 91.244,54.542 C86.035,54.727 81.962,59.103 82.149,64.313" id="Fill-403" fill="#FFFFFE"></path>
                <path d="M88.035,63.874 C88.6,63.372 89.391,63.067 90.43,63.105 C92.398,63.173 93.697,64.437 94.239,65.928 C94.532,65.448 94.725,64.898 94.745,64.296 C94.81,62.436 93.355,60.874 91.497,60.81 C89.7,60.745 88.196,62.104 88.035,63.874" id="Fill-404" fill="#2B3135"></path>
                <path d="M55.32,60.81 C57.117,60.745 58.621,62.104 58.783,63.874 C58.218,63.372 57.427,63.067 56.389,63.104 C54.419,63.173 53.121,64.437 52.578,65.928 C52.285,65.448 52.094,64.898 52.072,64.296 C52.007,62.437 53.462,60.874 55.32,60.81 Z M54.899,73.412 C60.109,73.597 64.482,69.523 64.668,64.313 C64.855,59.102 60.782,54.727 55.573,54.542 C50.361,54.356 45.988,58.429 45.801,63.64 C45.614,68.851 49.686,73.226 54.899,73.412 Z" id="Fill-405" fill="#FFFFFE"></path>
                <path d="M56.389,63.104 C57.427,63.067 58.218,63.372 58.783,63.874 C58.621,62.104 57.117,60.745 55.32,60.81 C53.462,60.874 52.007,62.437 52.072,64.296 C52.094,64.898 52.285,65.448 52.578,65.928 C53.121,64.437 54.419,63.173 56.389,63.104" id="Fill-406" fill="#2B3135"></path>
                <path d="M105.644,114.019 C108.65,114.974 111.273,115.171 111.499,114.457 C111.726,113.744 109.472,112.392 106.465,111.436 C103.456,110.48 100.835,110.284 100.608,110.997 C100.382,111.71 102.636,113.065 105.644,114.019" id="Fill-407" fill="#496067"></path>
                <path d="M85.996,139.792 C85.785,139.792 85.575,139.789 85.365,139.783 C84.243,139.753 83.122,139.639 82,139.443 L82,139.453 C81.981,139.45 81.963,139.447 81.944,139.443 C81.929,139.441 81.915,139.438 81.9,139.436 C81.892,139.434 81.883,139.433 81.875,139.431 C81.872,139.431 81.869,139.43 81.865,139.43 C78.842,138.895 75.925,137.767 73.277,136.063 L73.277,12.019 C73.521,12.011 73.764,12.001 74.009,12 C74.018,12 74.027,12 74.036,12 L74.076,12 C75.343,10.023 77.203,8.295 79.459,7.844 C79.486,7.838 79.513,7.833 79.54,7.828 C79.602,7.817 79.66,7.811 79.716,7.811 C80.174,7.811 80.428,8.178 80.427,8.566 C80.427,8.841 80.299,9.126 80.027,9.302 C78.641,10.194 77.313,11.028 76.166,12.056 C80.492,12.252 84.66,13.047 88.597,14.349 C94.267,12.345 103.391,10.012 115.183,10.012 C116.957,10.012 118.793,10.065 120.685,10.18 C138.317,11.249 147.376,31.45 147.374,54.698 C147.373,65.289 145.492,76.513 141.685,86.848 C136.608,100.628 126.916,104.641 117.343,104.641 C114.862,104.641 112.387,104.371 110.004,103.932 C110.498,101.615 110.77,99.218 110.805,96.762 C112.504,97.023 114.205,97.171 115.888,97.171 C115.889,97.171 115.89,97.171 115.89,97.171 C115.893,97.171 115.897,97.171 115.9,97.171 C123.885,97.168 131.406,93.848 135.745,83.698 C135.749,83.688 135.753,83.677 135.757,83.668 C135.781,83.613 135.804,83.557 135.828,83.501 C139.83,73.966 141.813,63.612 141.81,53.91 C141.805,33.416 132.941,15.835 115.544,15.049 C114.937,15.021 114.337,15.008 113.742,15.008 C113.741,15.008 113.741,15.008 113.74,15.008 C113.737,15.008 113.733,15.008 113.73,15.008 C107.929,15.009 102.685,16.28 98.088,18.174 C98.017,18.203 97.945,18.233 97.874,18.263 C97.867,18.266 97.859,18.269 97.852,18.272 C97.832,18.28 97.813,18.288 97.794,18.296 C97.708,18.332 97.622,18.369 97.537,18.405 C111.209,26.466 120.388,41.335 120.388,58.355 C120.388,69.535 116.428,79.791 109.835,87.797 C109.584,88.102 109.32,88.396 109.061,88.695 L109.242,88.673 C109.242,88.673 108.697,89.271 107.623,90.279 C104.097,93.987 99.967,97.11 95.386,99.493 C94.137,100.269 92.811,101.057 91.392,101.848 C91.334,101.88 91.277,101.912 91.22,101.944 C91.219,101.945 91.217,101.946 91.216,101.946 C79.456,108.632 78.39,122.433 85.288,122.431 C85.3,122.431 85.311,122.431 85.322,122.431 C85.326,122.431 85.329,122.431 85.333,122.431 C85.334,122.431 85.335,122.431 85.337,122.431 C85.341,122.431 85.346,122.431 85.351,122.431 C92.351,122.347 98.045,110.731 98.045,110.731 C98.045,110.731 98.577,108.791 102.087,108.789 C102.089,108.789 102.09,108.789 102.091,108.789 C102.094,108.789 102.097,108.789 102.101,108.789 C103.302,108.79 104.851,109.018 106.846,109.628 C106.881,109.638 106.916,109.649 106.952,109.66 C106.974,109.667 106.996,109.674 107.018,109.681 C107.416,109.792 107.786,109.908 108.133,110.027 C112.837,111.639 113.019,113.847 113.019,114.182 C113.019,114.211 113.018,114.225 113.018,114.225 C112.168,118.424 110.8,122.079 109.07,125.233 C108.411,126.434 107.706,127.571 106.945,128.622 C104.907,131.436 102.525,133.701 99.944,135.447 C99.709,135.606 99.474,135.76 99.236,135.91 C94.823,138.505 90.409,139.79 85.996,139.792 M110.174,114.886 C110.175,114.886 110.176,114.886 110.177,114.886 C110.922,114.886 111.407,114.746 111.499,114.457 C111.51,114.424 111.515,114.389 111.515,114.353 C111.513,113.618 109.331,112.347 106.465,111.436 C106.372,111.406 106.28,111.377 106.188,111.349 C106.168,111.343 106.149,111.338 106.13,111.332 C106.114,111.327 106.097,111.322 106.081,111.317 C106.077,111.316 106.072,111.314 106.067,111.313 C104.454,110.831 102.982,110.575 101.971,110.568 C101.958,110.568 101.945,110.568 101.932,110.568 C101.931,110.568 101.931,110.568 101.93,110.568 C101.199,110.569 100.718,110.703 100.614,110.982 C100.612,110.987 100.61,110.992 100.608,110.997 C100.598,111.031 100.593,111.065 100.593,111.102 C100.595,111.836 102.777,113.109 105.644,114.019 C105.661,114.025 105.678,114.03 105.695,114.036 C105.702,114.038 105.709,114.04 105.716,114.042 C105.724,114.045 105.732,114.047 105.74,114.05 C105.755,114.054 105.77,114.059 105.785,114.064 C105.799,114.068 105.813,114.073 105.828,114.077 C105.847,114.083 105.865,114.089 105.884,114.094 C107.557,114.607 109.092,114.88 110.135,114.886 C110.148,114.886 110.161,114.886 110.174,114.886 M91.578,73.418 C91.691,73.418 91.804,73.416 91.918,73.412 C97.02,73.229 101.029,69.037 101.023,63.974 C101.023,63.863 101.021,63.751 101.017,63.639 C101.016,63.618 101.015,63.596 101.014,63.574 C101.014,63.56 101.013,63.546 101.012,63.532 C100.776,58.49 96.617,54.541 91.596,54.536 C91.593,54.536 91.59,54.536 91.586,54.536 C91.472,54.536 91.359,54.538 91.244,54.542 C86.147,54.723 82.137,58.916 82.143,63.979 C82.143,64.09 82.145,64.201 82.149,64.313 C82.331,69.407 86.513,73.414 91.568,73.418 C91.571,73.418 91.575,73.418 91.578,73.418" id="Fill-409" fill="#839CA4"></path>
                <path d="M115.89,97.171 C115.89,97.171 115.889,97.171 115.888,97.171 C114.206,97.171 112.503,97.023 110.805,96.762 C110.808,96.584 110.818,96.409 110.818,96.23 C110.818,93.327 110.472,90.507 109.835,87.797 C116.428,79.791 120.388,69.535 120.388,58.355 C120.388,41.335 111.209,26.466 97.537,18.405 C97.622,18.369 97.708,18.332 97.794,18.296 C97.813,18.288 97.832,18.28 97.852,18.272 C97.859,18.269 97.867,18.266 97.874,18.263 C97.945,18.233 98.017,18.203 98.088,18.174 C102.685,16.28 107.929,15.009 113.73,15.008 C113.733,15.008 113.737,15.008 113.74,15.008 C113.741,15.008 113.741,15.008 113.742,15.008 C114.336,15.008 114.938,15.021 115.544,15.049 C132.941,15.835 141.805,33.416 141.81,53.91 C141.813,63.612 139.83,73.966 135.828,83.501 C135.804,83.557 135.781,83.613 135.757,83.668 C135.753,83.677 135.749,83.688 135.745,83.698 C131.406,93.848 123.885,97.168 115.9,97.171 C115.897,97.171 115.893,97.171 115.89,97.171" id="Fill-410" fill="#49676E"></path>
                <path d="M112.992,130.481 C111.892,130.481 110.806,130.312 109.746,129.97 C108.774,129.656 107.84,129.2 106.945,128.622 C107.706,127.571 108.411,126.434 109.07,125.233 C109.689,125.641 110.325,125.953 110.975,126.163 C111.631,126.376 112.304,126.481 112.992,126.481 C114.412,126.481 115.894,126.029 117.42,125.134 C117.46,125.301 117.493,125.463 117.547,125.638 C118.007,127.112 118.643,128.064 119.393,128.615 C117.263,129.85 115.102,130.481 112.992,130.481" id="Fill-411" fill="#708E97"></path>
                <path d="M121.221,129.205 C120.564,129.205 119.946,129.022 119.393,128.615 C118.643,128.064 118.007,127.112 117.547,125.638 C117.493,125.463 117.46,125.301 117.42,125.134 C117.311,124.673 117.261,124.243 117.261,123.844 C117.271,119.372 123.75,118.609 128.171,118.609 C130.461,118.609 132.199,118.814 132.199,118.814 C130.201,123.057 125.035,129.205 121.221,129.205" id="Fill-412" fill="#839CA4"></path>
                <path d="M82,146.139 L82,139.443 C83.122,139.639 84.243,139.753 85.365,139.783 C85.572,139.789 85.78,139.792 85.988,139.792 C85.99,139.792 85.993,139.792 85.996,139.792 C90.409,139.79 94.823,138.505 99.236,135.91 C99.472,135.771 99.708,135.629 99.944,135.482 L99.944,145.112 C98.701,143.714 97.049,142.625 95.202,141.972 C93.984,141.53 92.668,141.289 91.306,141.289 C91.297,141.289 91.288,141.289 91.279,141.289 C91.27,141.289 91.26,141.289 91.25,141.289 C87.408,141.289 84.041,143.21 82,146.139" id="Fill-413" fill="#63848F"></path>
                <path d="M102.944,154 L80,154 L80,152.586 C80,150.209 80.714,148.007 81.967,146.187 C81.978,146.171 81.989,146.155 82,146.139 C84.041,143.21 87.408,141.289 91.25,141.289 C91.26,141.289 91.27,141.289 91.279,141.289 C92.631,141.292 93.96,141.533 95.202,141.972 C97.049,142.625 98.701,143.714 99.944,145.112 L99.944,145.375 C101.569,147.331 102.944,149.844 102.944,152.586 L102.944,154" id="Fill-414" fill="#F7D0B4"></path>
                <path d="M85.288,122.431 C78.391,122.431 79.457,108.631 91.216,101.946 C91.217,101.946 91.219,101.945 91.22,101.944 C91.277,101.912 91.334,101.88 91.392,101.848 C92.811,101.057 94.137,100.269 95.386,99.493 C99.967,97.11 104.097,93.987 107.623,90.279 C108.697,89.271 109.242,88.673 109.242,88.673 L109.061,88.695 C109.32,88.396 109.584,88.102 109.835,87.797 C110.472,90.507 110.818,93.327 110.818,96.23 C110.818,96.409 110.808,96.584 110.805,96.762 C110.77,99.218 110.498,101.615 110.004,103.932 C109.556,106.036 108.925,108.072 108.133,110.027 C107.786,109.908 107.416,109.792 107.018,109.681 C106.996,109.674 106.974,109.667 106.952,109.66 C106.916,109.649 106.881,109.638 106.846,109.628 C104.851,109.018 103.302,108.79 102.101,108.789 C102.097,108.789 102.094,108.789 102.091,108.789 C102.09,108.789 102.089,108.789 102.087,108.789 C98.577,108.791 98.045,110.731 98.045,110.731 C98.045,110.731 92.351,122.347 85.351,122.431 C85.346,122.431 85.341,122.431 85.337,122.431 C85.335,122.431 85.334,122.431 85.333,122.431 C85.329,122.431 85.326,122.431 85.322,122.431 C85.311,122.431 85.3,122.431 85.288,122.431" id="Fill-415" fill="#63848F"></path>
                <path d="M91.578,73.418 C91.575,73.418 91.571,73.418 91.568,73.418 C86.514,73.413 82.331,69.406 82.149,64.313 C82.145,64.201 82.143,64.09 82.143,63.979 C82.137,58.916 86.147,54.723 91.244,54.542 C91.359,54.538 91.472,54.536 91.586,54.536 C91.59,54.536 91.593,54.536 91.596,54.536 C96.616,54.541 100.776,58.49 101.012,63.532 C101.013,63.546 101.014,63.56 101.014,63.574 C101.015,63.596 101.016,63.618 101.017,63.639 C101.021,63.751 101.023,63.863 101.023,63.974 C101.029,69.037 97.02,73.229 91.918,73.412 C91.804,73.416 91.691,73.418 91.578,73.418 M90.395,63.103 C90.406,63.104 90.418,63.104 90.43,63.105 C92.398,63.173 93.697,64.437 94.239,65.928 C94.532,65.448 94.725,64.898 94.745,64.296 C94.747,64.252 94.747,64.209 94.747,64.166 C94.742,62.364 93.312,60.872 91.497,60.81 C91.487,60.809 91.477,60.809 91.466,60.809 C91.436,60.808 91.405,60.807 91.375,60.807 L91.374,60.807 C89.67,60.807 88.255,62.088 88.047,63.762 C88.045,63.784 88.042,63.805 88.04,63.826 C88.038,63.842 88.037,63.858 88.035,63.874 C88.044,63.866 88.053,63.858 88.062,63.85 C88.079,63.836 88.096,63.821 88.113,63.807 C88.638,63.373 89.347,63.103 90.253,63.102 C90.255,63.102 90.258,63.102 90.26,63.102 C90.261,63.102 90.261,63.102 90.262,63.102 C90.305,63.102 90.35,63.102 90.395,63.103" id="Fill-416" fill="#FFFFFE"></path>
                <path d="M94.239,65.928 C93.697,64.437 92.398,63.173 90.43,63.105 C90.418,63.104 90.406,63.104 90.395,63.103 C90.35,63.102 90.306,63.102 90.262,63.102 C90.261,63.102 90.261,63.102 90.26,63.102 C90.258,63.102 90.255,63.102 90.253,63.102 C89.347,63.103 88.638,63.373 88.113,63.807 C88.096,63.821 88.079,63.836 88.062,63.85 C88.053,63.858 88.044,63.866 88.035,63.874 C88.037,63.858 88.038,63.842 88.04,63.826 C88.042,63.805 88.045,63.784 88.047,63.762 C88.255,62.088 89.67,60.807 91.374,60.807 L91.375,60.807 C91.405,60.807 91.436,60.808 91.466,60.809 C91.477,60.809 91.487,60.809 91.497,60.81 C93.312,60.872 94.742,62.364 94.747,64.166 C94.747,64.209 94.747,64.252 94.745,64.296 C94.725,64.898 94.532,65.448 94.239,65.928" id="Fill-417" fill="#3C4246"></path>
                <path d="M110.174,114.886 C110.161,114.886 110.148,114.886 110.135,114.886 C109.092,114.88 107.557,114.607 105.884,114.094 C105.865,114.089 105.847,114.083 105.828,114.077 C105.813,114.073 105.799,114.068 105.785,114.064 C105.77,114.059 105.755,114.054 105.74,114.05 C105.732,114.047 105.724,114.045 105.716,114.042 C105.709,114.04 105.702,114.038 105.695,114.036 C105.678,114.03 105.661,114.025 105.644,114.019 C102.777,113.109 100.595,111.836 100.593,111.102 C100.593,111.065 100.598,111.031 100.608,110.997 C100.61,110.992 100.612,110.987 100.614,110.982 C100.718,110.703 101.199,110.569 101.93,110.568 C101.931,110.568 101.931,110.568 101.932,110.568 C101.945,110.568 101.958,110.568 101.971,110.568 C102.982,110.575 104.454,110.831 106.067,111.313 C106.072,111.314 106.077,111.316 106.081,111.317 C106.097,111.322 106.114,111.327 106.13,111.332 C106.149,111.338 106.168,111.343 106.188,111.349 C106.279,111.377 106.372,111.406 106.465,111.436 C109.331,112.347 111.513,113.618 111.515,114.353 C111.515,114.389 111.51,114.424 111.499,114.457 C111.407,114.746 110.922,114.886 110.177,114.886 C110.176,114.886 110.175,114.886 110.174,114.886" id="Fill-418" fill="#5A7176"></path>
            </g>
        </g>
    </g>
</svg>