<?xml version="1.0" encoding="UTF-8"?>
<svg width="92px" height="145px" viewBox="0 0 92 145" version="1.1" xmlns="http://www.w3.org/2000/svg" xmlns:xlink="http://www.w3.org/1999/xlink">
    <!-- Generator: Sketch 52.4 (67378) - http://www.bohemiancoding.com/sketch -->
    <title>Group 14</title>
    <desc>Created with Sketch.</desc>
    <g id="Page-1" stroke="none" stroke-width="1" fill="none" fill-rule="evenodd">
        <g id="A&amp;M1" transform="translate(-114.000000, -586.000000)">
            <g id="Group-14" transform="translate(114.000000, 586.000000)">
                <path d="M16.156,119.14 C11.935,113.178 9.446,105.902 9.446,98.041 C9.446,91.357 11.248,85.099 14.379,79.707 C13.534,78.897 12.716,78.06 11.935,77.188 C8.278,81.791 2.617,92.116 3.995,110.949 C5.093,125.965 11.033,128.555 16.165,127.841 C16.008,124.915 16.034,121.935 16.156,119.14" id="Fill-509" fill="#D3D7CA"></path>
                <path d="M77.656,79.707 C80.787,85.098 82.589,91.357 82.589,98.041 C82.589,106.194 79.918,113.723 75.407,119.805 C75.503,122.38 75.515,125.092 75.375,127.761 C80.613,128.709 86.906,126.45 88.04,110.949 C89.418,92.116 83.757,81.791 80.101,77.188 C79.319,78.06 78.501,78.897 77.656,79.707" id="Fill-510" fill="#D3D7CA"></path>
                <path d="M19.796,9.197 C17.826,6.816 14.849,5.299 11.518,5.299 C5.585,5.299 0.775,10.109 0.775,16.041 C0.775,19.824 2.736,23.144 5.693,25.059 C9.094,18.728 13.945,13.299 19.796,9.197" id="Fill-511" fill="#D3D7CA"></path>
                <path d="M86.06,24.547 C88.61,22.583 90.26,19.508 90.26,16.041 C90.26,10.109 85.45,5.299 79.518,5.299 C76.396,5.299 73.594,6.639 71.631,8.766 C77.598,12.805 82.554,18.218 86.06,24.547" id="Fill-512" fill="#D3D7CA"></path>
                <path d="M46.017,71.973 C44.945,74.358 43.286,76.415 41.224,77.975 C41.455,77.982 41.678,78 41.914,78 L48.463,78 C49.215,78 49.948,77.947 50.668,77.869 C48.671,76.322 47.065,74.304 46.017,71.973" id="Fill-513" fill="#FFFFFE"></path>
                <path d="M45.944,78 L41.914,78 C41.678,78 41.455,77.982 41.224,77.975 C43.24,76.45 44.87,74.451 45.944,72.133 L45.944,78" id="Fill-514" fill="#969F9E"></path>
                <path d="M16.431,65.641 C16.431,74.188 23.359,81.115 31.905,81.115 C35.409,81.115 38.63,79.938 41.224,77.975 C43.286,76.415 44.945,74.358 46.017,71.973 C47.065,74.304 48.671,76.322 50.668,77.869 C53.285,79.896 56.561,81.115 60.128,81.115 C68.674,81.115 75.605,74.188 75.605,65.641 C75.605,57.094 68.674,50.164 60.128,50.164 C59.337,50.164 58.566,50.242 57.807,50.356 C58.02,51.028 58.129,51.724 58.129,52.428 C58.129,56.548 50.161,65.047 45.622,65.047 C41.082,65.047 33.115,56.548 33.115,52.428 C33.115,51.684 33.232,50.949 33.47,50.243 C32.955,50.191 32.434,50.164 31.905,50.164 C23.359,50.164 16.431,57.094 16.431,65.641" id="Fill-515" fill="#E2E2DF"></path>
                <path d="M45.622,65.047 C50.161,65.047 58.129,56.548 58.129,52.428 C58.129,51.724 58.02,51.028 57.807,50.356 C56.777,47.099 53.13,44.438 45.622,44.438 C38.201,44.438 34.548,47.037 33.47,50.243 C33.232,50.949 33.115,51.684 33.115,52.428 C33.115,56.548 41.082,65.047 45.622,65.047" id="Fill-516" fill="#2B3135"></path>
                <path d="M23.271,40.14 C23.82,38.379 25.328,36.836 27.634,36.836 C29.372,36.836 30.446,37.69 30.934,38.85 C31.264,38.197 31.454,37.461 31.454,36.68 C31.454,34.015 29.294,31.855 26.63,31.855 C23.967,31.855 21.805,34.015 21.805,36.68 C21.805,38.037 22.369,39.264 23.271,40.14" id="Fill-517" fill="#2B3135"></path>
                <path d="M63.168,36.836 C65.472,36.836 66.98,38.379 67.529,40.139 C68.431,39.264 68.997,38.037 68.997,36.68 C68.997,34.015 66.837,31.855 64.172,31.855 C61.506,31.855 59.348,34.015 59.348,36.68 C59.348,37.461 59.535,38.197 59.866,38.85 C60.352,37.69 61.428,36.836 63.168,36.836" id="Fill-518" fill="#2B3135"></path>
                <path d="M26.63,31.855 C29.294,31.855 31.454,34.015 31.454,36.68 C31.454,37.461 31.264,38.197 30.934,38.85 C30.446,37.69 29.372,36.836 27.634,36.836 C25.328,36.836 23.82,38.379 23.271,40.139 C22.369,39.264 21.805,38.037 21.805,36.68 C21.805,34.015 23.967,31.855 26.63,31.855 M45.622,44.438 C53.13,44.438 56.777,47.099 57.807,50.356 C58.566,50.242 59.337,50.164 60.128,50.164 C68.674,50.164 75.605,57.094 75.605,65.641 C75.605,74.188 68.674,81.115 60.128,81.115 C56.561,81.115 53.285,79.896 50.668,77.869 C49.948,77.947 49.215,78 48.463,78 L41.914,78 C41.678,78 41.455,77.982 41.224,77.975 C38.63,79.938 35.409,81.115 31.905,81.115 C23.359,81.115 16.431,74.188 16.431,65.641 C16.431,57.094 23.359,50.164 31.905,50.164 C32.434,50.164 32.955,50.191 33.47,50.243 C34.548,47.037 38.201,44.438 45.622,44.438 M64.172,31.855 C66.837,31.855 68.997,34.015 68.997,36.68 C68.997,38.037 68.431,39.264 67.529,40.139 C66.98,38.379 65.472,36.836 63.168,36.836 C61.428,36.836 60.352,37.69 59.866,38.85 C59.535,38.197 59.348,37.461 59.348,36.68 C59.348,34.015 61.506,31.855 64.172,31.855 M75.407,119.805 C79.918,113.723 82.589,106.194 82.589,98.041 C82.589,91.357 80.787,85.098 77.656,79.707 C78.501,78.897 79.319,78.06 80.101,77.188 C87.353,69.092 91.768,58.402 91.768,46.678 C91.768,38.648 89.693,31.106 86.06,24.547 C82.554,18.218 77.598,12.805 71.631,8.766 C64.323,3.818 55.508,0.928 46.018,0.928 C36.26,0.928 27.223,3.992 19.796,9.197 C13.945,13.299 9.094,18.728 5.693,25.059 C2.234,31.497 0.268,38.857 0.268,46.678 C0.268,58.402 4.683,69.092 11.935,77.188 C12.716,78.06 13.534,78.897 14.379,79.707 C11.248,85.098 9.446,91.357 9.446,98.041 C9.446,105.902 11.935,113.178 16.156,119.14 C16.034,121.935 16.008,124.915 16.165,127.841 C16.35,131.325 16.792,134.73 17.643,137.646 C17.643,137.646 9.32,137 9.32,145 L41.268,145 C41.268,145 40.942,139.142 42.064,134.397 C43.363,134.536 44.681,134.612 46.018,134.612 C47.186,134.612 48.341,134.552 49.482,134.444 C50.591,139.182 50.268,145 50.268,145 L82.215,145 C82.215,137 73.893,137.646 73.893,137.646 C74.749,134.709 75.192,131.273 75.375,127.761 C75.515,125.092 75.503,122.38 75.407,119.805" id="Fill-519" fill="#FFFFFE"></path>
                <path d="M77.358,127.946 C76.689,127.946 76.024,127.878 75.375,127.761 C75.448,126.364 75.48,124.955 75.48,123.56 C75.479,122.29 75.453,121.032 75.407,119.805 C79.918,113.723 82.589,106.194 82.589,98.041 C82.589,91.357 80.787,85.098 77.656,79.707 C78.501,78.897 79.319,78.06 80.101,77.188 C83.371,81.305 88.246,90.002 88.252,105.271 C88.252,107.071 88.185,108.963 88.04,110.949 C87.047,124.531 82.093,127.946 77.358,127.946" id="Fill-520" fill="#D9DCCF"></path>
                <path d="M86.06,24.547 C82.554,18.218 77.598,12.805 71.631,8.766 C73.594,6.639 76.396,5.299 79.518,5.299 C85.45,5.299 90.26,10.109 90.26,16.041 C90.26,19.508 88.61,22.583 86.06,24.547" id="Fill-521" fill="#D9DCCF"></path>
                <path d="M48.463,78 L45.944,78 L45.944,72.133 C45.968,72.08 45.993,72.026 46.017,71.973 C47.065,74.304 48.671,76.322 50.668,77.869 C49.948,77.947 49.215,78 48.463,78" id="Fill-522" fill="#A2AAAA"></path>
                <path d="M60.128,81.115 C56.561,81.115 53.285,79.896 50.668,77.869 C48.671,76.322 47.065,74.304 46.017,71.973 C45.993,72.026 45.968,72.08 45.944,72.133 L45.944,65.033 C50.527,64.655 58.129,56.452 58.129,52.428 C58.129,51.724 58.02,51.028 57.807,50.356 C58.566,50.242 59.337,50.164 60.128,50.164 C68.674,50.164 75.605,57.094 75.605,65.641 C75.605,74.188 68.674,81.115 60.128,81.115" id="Fill-523" fill="#E6E7E4"></path>
                <path d="M45.944,65.033 L45.944,44.439 C53.234,44.514 56.792,47.145 57.807,50.356 C58.02,51.028 58.129,51.724 58.129,52.428 C58.129,56.452 50.527,64.655 45.944,65.033" id="Fill-524" fill="#3C4246"></path>
                <path d="M67.529,40.139 C66.98,38.379 65.472,36.836 63.168,36.836 C61.428,36.836 60.352,37.69 59.866,38.85 C59.535,38.197 59.348,37.461 59.348,36.68 C59.348,34.015 61.506,31.855 64.172,31.855 C66.837,31.855 68.997,34.015 68.997,36.68 C68.997,38.037 68.431,39.264 67.529,40.139" id="Fill-525" fill="#3C4246"></path>
                <path d="M82.215,145 L50.268,145 C50.268,145 50.312,144.207 50.312,142.969 C50.311,140.852 50.182,137.433 49.482,134.444 C48.341,134.552 47.186,134.612 46.018,134.612 L45.944,134.61 L45.944,78 L48.463,78 C49.215,78 49.948,77.947 50.668,77.869 C53.285,79.896 56.561,81.115 60.128,81.115 C68.674,81.115 75.605,74.188 75.605,65.641 C75.605,57.094 68.674,50.164 60.128,50.164 C59.337,50.164 58.566,50.242 57.807,50.356 C56.792,47.145 53.234,44.514 45.944,44.439 L45.944,0.93 L46.018,0.928 C55.508,0.928 64.323,3.818 71.631,8.766 C77.598,12.805 82.554,18.218 86.06,24.547 C89.693,31.106 91.768,38.648 91.768,46.678 C91.768,58.402 87.353,69.092 80.101,77.188 C79.319,78.06 78.501,78.897 77.656,79.707 C80.787,85.098 82.589,91.357 82.589,98.041 C82.589,106.194 79.918,113.723 75.407,119.805 C75.453,121.032 75.479,122.29 75.48,123.56 C75.48,124.955 75.448,126.364 75.375,127.761 C75.192,131.273 74.749,134.709 73.893,137.646 C73.893,137.646 74.053,137.633 74.33,137.633 C76.046,137.633 82.215,138.112 82.215,145 M63.168,36.836 C65.472,36.836 66.98,38.379 67.529,40.139 C68.431,39.264 68.997,38.037 68.997,36.68 C68.997,34.015 66.837,31.855 64.172,31.855 C61.506,31.855 59.348,34.015 59.348,36.68 C59.348,37.461 59.535,38.197 59.866,38.85 C60.352,37.69 61.428,36.836 63.168,36.836" id="Fill-526" fill="#FFFFFE"></path>
            </g>
        </g>
    </g>
</svg>